#!OML:ASF C:\Vicon Data\Big\jianyuan-13\jianyuan\Session 1\Capture.male.ASF
:FULLY-SPECIFIED
:DEGREES
223
root -5.465046 17.734887 -1.898386 0.075272 9.155181 -1.291839
lowerback -11.214368 -1.735103 -0.730072 
upperback 1.900998 -2.353706 1.477579 
thorax 8.423708 -1.226609 1.549120 
lowerneck -2.305997 -2.327167 3.379465 
upperneck 12.715050 -2.317719 -4.466870 
head 4.530006 -0.970016 -2.214198 
rclavicle 0.000000 0.000000 
rhumerus -41.016133 -20.513740 -73.520251 
rradius 32.912104 
rwrist 29.237802 
rhand -17.902350 -17.525171 
rfingers 0.000000 
rthumb 8.364563 -47.339509 
lclavicle 0.000000 0.000000 
lhumerus -17.966867 7.495245 94.923924 
lradius 42.335560 
lwrist -31.170718 
lhand -19.075178 1.637673 
lfingers 0.000000 
lthumb 7.232551 31.494071 
rfemur -71.389698 -5.502202 16.937504 
rtibia 79.012080 
rfoot -10.685392 -5.175761 
rtoes -33.839897 
lfemur 6.981798 -6.297736 -24.562328 
ltibia 9.761222 
lfoot -12.911972 0.378902 
ltoes -21.496015 
224
root -5.464264 17.722244 -1.810242 0.092546 9.291400 -1.106082
lowerback -11.338610 -1.780785 -1.057908 
upperback 1.898215 -2.372722 1.538032 
thorax 8.510232 -1.253797 1.791611 
lowerneck -2.257245 -2.339346 3.348997 
upperneck 12.752024 -2.307836 -4.577773 
head 4.533746 -0.967512 -2.246228 
rclavicle 0.000000 0.000000 
rhumerus -40.949361 -20.106203 -73.621638 
rradius 33.093601 
rwrist 28.701861 
rhand -17.954534 -17.577520 
rfingers 0.000000 
rthumb 8.314190 -47.393909 
lclavicle 0.000000 0.000000 
lhumerus -18.052199 7.978868 95.042596 
lradius 41.801195 
lwrist -32.199277 
lhand -18.673813 1.679794 
lfingers 0.000000 
lthumb 7.620039 31.522521 
rfemur -70.502696 -5.213784 16.548178 
rtibia 77.433267 
rfoot -10.737973 -4.926743 
rtoes -34.093314 
lfemur 7.200853 -6.208996 -24.717792 
ltibia 10.002639 
lfoot -13.070459 0.095968 
ltoes -21.261076 
225
root -5.460356 17.706173 -1.725161 0.113602 9.425855 -0.954820
lowerback -11.433388 -1.767009 -1.175627 
upperback 1.898385 -2.331703 1.494160 
thorax 8.566351 -1.237905 1.816710 
lowerneck -2.276673 -2.396345 3.255638 
upperneck 12.861579 -2.384693 -4.450043 
head 4.553171 -1.001748 -2.180451 
rclavicle 0.000000 0.000000 
rhumerus -40.985301 -20.306164 -73.518124 
rradius 33.172234 
rwrist 29.156503 
rhand -18.034236 -17.480432 
rfingers 0.000000 
rthumb 8.237293 -47.299768 
lclavicle 0.000000 0.000000 
lhumerus -18.129565 8.106129 95.070368 
lradius 41.220881 
lwrist -33.004816 
lhand -18.344793 1.618132 
lfingers 0.000000 
lthumb 7.937605 31.449104 
rfemur -69.618904 -4.957539 16.172986 
rtibia 75.881664 
rfoot -10.829883 -4.631557 
rtoes -34.361143 
lfemur 7.351498 -6.248108 -24.870501 
ltibia 10.378931 
lfoot -13.384361 -0.140645 
ltoes -20.987387 
226
root -5.459961 17.688925 -1.635943 0.112435 9.540803 -0.879566
lowerback -11.533666 -1.816454 -1.248398 
upperback 1.876729 -2.378153 1.417888 
thorax 8.602489 -1.260907 1.765403 
lowerneck -2.204076 -2.402731 3.422217 
upperneck 13.350169 -2.345998 -4.649456 
head 4.240255 -0.994446 -2.070841 
rclavicle 0.000000 0.000000 
rhumerus -40.955200 -20.177983 -73.788329 
rradius 33.225197 
rwrist 28.785163 
rhand -17.950348 -17.462237 
rfingers 0.000000 
rthumb 8.318252 -47.278397 
lclavicle 0.000000 0.000000 
lhumerus -18.313461 8.350633 94.839501 
lradius 40.677380 
lwrist -33.772514 
lhand -18.070059 1.580298 
lfingers 0.000000 
lthumb 8.202719 31.401098 
rfemur -68.661457 -4.672967 15.995173 
rtibia 74.279838 
rfoot -10.838439 -4.430087 
rtoes -35.414497 
lfemur 7.504151 -6.281566 -24.920440 
ltibia 10.789878 
lfoot -13.712760 -0.406490 
ltoes -20.438089 
227
root -5.460645 17.673270 -1.548253 0.183251 9.692021 -0.758453
lowerback -11.689602 -1.866901 -1.413836 
upperback 1.864126 -2.418388 1.406341 
thorax 8.687542 -1.288148 1.834761 
lowerneck -2.206585 -2.441570 3.260763 
upperneck 13.469816 -2.388911 -4.530650 
head 4.279464 -1.012857 -2.010663 
rclavicle 0.000000 0.000000 
rhumerus -40.890590 -19.386027 -74.233109 
rradius 33.569987 
rwrist 28.134351 
rhand -17.899138 -17.825453 
rfingers 0.000000 
rthumb 8.367672 -47.639761 
lclavicle 0.000000 0.000000 
lhumerus -18.414431 8.819666 94.801049 
lradius 40.075325 
lwrist -34.636165 
lhand -17.800536 1.545401 
lfingers 0.000000 
lthumb 8.462855 31.355804 
rfemur -67.765029 -4.358649 15.659129 
rtibia 72.707433 
rfoot -11.005513 -4.326935 
rtoes -35.187280 
lfemur 7.589533 -6.239928 -25.004075 
ltibia 11.133337 
lfoot -13.913996 -0.654756 
ltoes -20.432217 
228
root -5.461127 17.656181 -1.463470 0.208190 9.836654 -0.610252
lowerback -11.746417 -1.910926 -1.627863 
upperback 1.835630 -2.443605 1.400068 
thorax 8.700076 -1.310346 1.942852 
lowerneck -2.126606 -2.453105 3.346803 
upperneck 13.591756 -2.370231 -4.667901 
head 4.300203 -0.998351 -2.066255 
rclavicle 0.000000 0.000000 
rhumerus -40.844973 -19.112349 -74.359633 
rradius 33.586966 
rwrist 28.015688 
rhand -18.177085 -17.861854 
rfingers 0.000000 
rthumb 8.099389 -47.686664 
lclavicle 0.000000 0.000000 
lhumerus -18.552962 9.382575 94.747436 
lradius 39.514258 
lwrist -35.404474 
lhand -17.662945 1.255156 
lfingers 0.000000 
lthumb 8.595589 31.060229 
rfemur -66.869057 -4.110449 15.355272 
rtibia 71.211833 
rfoot -11.125354 -4.223472 
rtoes -35.260356 
lfemur 7.793220 -6.241011 -25.140650 
ltibia 11.354628 
lfoot -14.087199 -0.810519 
ltoes -20.476424 
229
root -5.459875 17.640118 -1.381743 0.241758 9.948618 -0.467449
lowerback -11.845699 -1.915163 -1.676977 
upperback 1.848801 -2.429087 1.289223 
thorax 8.767893 -1.301911 1.852313 
lowerneck -2.102222 -2.497978 3.411610 
upperneck 13.657955 -2.427916 -4.655265 
head 4.313077 -1.019684 -2.075640 
rclavicle 0.000000 0.000000 
rhumerus -40.842259 -20.267564 -73.957976 
rradius 33.360916 
rwrist 29.017213 
rhand -17.878336 -17.528424 
rfingers 0.000000 
rthumb 8.387799 -47.341841 
lclavicle 0.000000 0.000000 
lhumerus -18.651067 9.590983 94.597440 
lradius 38.978022 
lwrist -35.955515 
lhand -17.690475 1.367758 
lfingers 0.000000 
lthumb 8.569044 31.173905 
rfemur -66.000459 -3.820273 15.053936 
rtibia 69.789001 
rfoot -11.257093 -4.239975 
rtoes -35.456811 
lfemur 8.006801 -6.092219 -25.246362 
ltibia 11.503670 
lfoot -14.175679 -1.029096 
ltoes -20.982234 
230
root -5.461576 17.622995 -1.298550 0.319068 10.104022 -0.378687
lowerback -12.003448 -1.989799 -1.776228 
upperback 1.847330 -2.508312 1.255979 
thorax 8.864416 -1.344338 1.852820 
lowerneck -1.997938 -2.506533 3.434053 
upperneck 13.674556 -2.421668 -4.716769 
head 4.299420 -1.014159 -2.096609 
rclavicle 0.000000 0.000000 
rhumerus -40.699907 -19.177212 -74.660960 
rradius 33.656447 
rwrist 27.905404 
rhand -17.871628 -17.922648 
rfingers 0.000000 
rthumb 8.394181 -47.735910 
lclavicle 0.000000 0.000000 
lhumerus -18.732762 10.055965 94.463204 
lradius 38.476539 
lwrist -36.477356 
lhand -17.667223 1.325701 
lfingers 0.000000 
lthumb 8.591451 31.130856 
rfemur -65.159684 -3.626421 14.870727 
rtibia 68.358619 
rfoot -11.297870 -4.227367 
rtoes -35.315865 
lfemur 8.159009 -6.026825 -25.280045 
ltibia 11.664093 
lfoot -14.320522 -1.263699 
ltoes -20.874446 
231
root -5.462868 17.605483 -1.212178 0.399845 10.207038 -0.274859
lowerback -12.165461 -1.988357 -1.882129 
upperback 1.843850 -2.486849 1.245082 
thorax 8.957587 -1.339318 1.900698 
lowerneck -1.859835 -2.530040 3.559695 
upperneck 13.657605 -2.428709 -4.881922 
head 4.266021 -1.014677 -2.166057 
rclavicle 0.000000 0.000000 
rhumerus -40.628272 -20.016315 -74.270968 
rradius 33.498961 
rwrist 28.296090 
rhand -18.040366 -17.750107 
rfingers 0.000000 
rthumb 8.231355 -47.569718 
lclavicle 0.000000 0.000000 
lhumerus -18.860121 10.283211 94.449567 
lradius 38.017144 
lwrist -36.576340 
lhand -18.073423 1.267180 
lfingers 0.000000 
lthumb 8.199497 31.088065 
rfemur -64.283048 -3.329789 14.647563 
rtibia 66.894571 
rfoot -11.453119 -4.294514 
rtoes -35.405511 
lfemur 8.318095 -5.963253 -25.345175 
ltibia 11.860145 
lfoot -14.523149 -1.461987 
ltoes -21.217064 
232
root -5.461548 17.588708 -1.127497 0.436432 10.337977 -0.178673
lowerback -12.221560 -2.033663 -1.992025 
upperback 1.827739 -2.528962 1.239890 
thorax 8.979678 -1.364993 1.947341 
lowerneck -1.802303 -2.557844 3.434927 
upperneck 13.781996 -2.447984 -4.800994 
head 4.296466 -1.019069 -2.121740 
rclavicle 0.000000 0.000000 
rhumerus -40.548803 -19.555642 -74.520246 
rradius 33.667817 
rwrist 27.594008 
rhand -17.805146 -17.862734 
rfingers 0.000000 
rthumb 8.458388 -47.673355 
lclavicle 0.000000 0.000000 
lhumerus -19.077343 10.713783 94.366522 
lradius 37.656237 
lwrist -37.240159 
lhand -18.064307 1.306522 
lfingers 0.000000 
lthumb 8.208293 31.127087 
rfemur -63.369500 -3.107978 14.445994 
rtibia 65.446899 
rfoot -11.464796 -4.387050 
rtoes -34.768552 
lfemur 8.552671 -5.975863 -25.436014 
ltibia 12.009015 
lfoot -14.712310 -1.544706 
ltoes -21.634379 
233
root -5.464108 17.575351 -1.039934 0.554815 10.504280 -0.073144
lowerback -12.397905 -2.120914 -2.121025 
upperback 1.821471 -2.618794 1.203680 
thorax 9.084174 -1.414109 1.958011 
lowerneck -1.714070 -2.580675 3.321816 
upperneck 13.858756 -2.473052 -4.664194 
head 4.307956 -1.024226 -2.061480 
rclavicle 0.000000 0.000000 
rhumerus -40.434119 -19.127553 -74.838546 
rradius 33.764918 
rwrist 27.493656 
rhand -17.744379 -18.024239 
rfingers 0.000000 
rthumb 8.516996 -47.832475 
lclavicle 0.000000 0.000000 
lhumerus -19.275751 10.987396 94.177454 
lradius 37.354319 
lwrist -37.677478 
lhand -18.012051 1.183736 
lfingers 0.000000 
lthumb 8.258678 31.002320 
rfemur -62.494159 -2.909527 14.293208 
rtibia 63.966164 
rfoot -11.488878 -4.458769 
rtoes -35.455015 
lfemur 8.593682 -5.807343 -25.448988 
ltibia 12.323157 
lfoot -14.828587 -1.849416 
ltoes -21.846394 
